<svg xmlns="http://www.w3.org/2000/svg" xmlns:xlink="http://www.w3.org/1999/xlink" width="500" zoomAndPan="magnify" viewBox="0 0 375 374.999991" height="500" preserveAspectRatio="xMidYMid meet" version="1.0"><defs><g/><clipPath id="cbf080fe78"><path d="M 1.878906 0 L 373.121094 0 L 373.121094 374.988281 L 1.878906 374.988281 Z M 1.878906 0 " clip-rule="nonzero"/></clipPath><clipPath id="ebb17242b6"><path d="M 76.878906 0 L 298.121094 0 C 339.542969 0 373.121094 33.578125 373.121094 75 L 373.121094 300 C 373.121094 341.421875 339.542969 375 298.121094 375 L 76.878906 375 C 35.457031 375 1.878906 341.421875 1.878906 300 L 1.878906 75 C 1.878906 33.578125 35.457031 0 76.878906 0 Z M 76.878906 0 " clip-rule="nonzero"/></clipPath><radialGradient gradientTransform="matrix(1, 0, 0, 1, 1.879375, -0.01007)" gradientUnits="userSpaceOnUse" r="527.678866" cx="0" id="be524f7fdf" cy="0" fx="0" fy="0"><stop stop-opacity="1" stop-color="rgb(9.521484%, 9.521484%, 9.521484%)" offset="0"/><stop stop-opacity="1" stop-color="rgb(9.75647%, 9.75647%, 9.75647%)" offset="0.0625"/><stop stop-opacity="1" stop-color="rgb(9.977722%, 9.977722%, 9.977722%)" offset="0.121094"/><stop stop-opacity="1" stop-color="rgb(10.183716%, 10.183716%, 10.183716%)" offset="0.175781"/><stop stop-opacity="1" stop-color="rgb(10.466003%, 10.466003%, 10.466003%)" offset="0.226562"/><stop stop-opacity="1" stop-color="rgb(10.8078%, 10.8078%, 10.8078%)" offset="0.320312"/><stop stop-opacity="1" stop-color="rgb(11.112976%, 11.112976%, 11.112976%)" offset="0.402344"/><stop stop-opacity="1" stop-color="rgb(11.380005%, 11.380005%, 11.380005%)" offset="0.476562"/><stop stop-opacity="1" stop-color="rgb(11.607361%, 11.607361%, 11.607361%)" offset="0.539062"/><stop stop-opacity="1" stop-color="rgb(11.813354%, 11.813354%, 11.813354%)" offset="0.59375"/><stop stop-opacity="1" stop-color="rgb(12.080383%, 12.080383%, 12.080383%)" offset="0.644531"/><stop stop-opacity="1" stop-color="rgb(12.37793%, 12.37793%, 12.37793%)" offset="0.730469"/><stop stop-opacity="1" stop-color="rgb(12.605286%, 12.605286%, 12.605286%)" offset="0.796875"/><stop stop-opacity="1" stop-color="rgb(12.849426%, 12.849426%, 12.849426%)" offset="0.847656"/><stop stop-opacity="1" stop-color="rgb(13.146973%, 13.146973%, 13.146973%)" offset="0.921875"/><stop stop-opacity="1" stop-color="rgb(13.299561%, 13.299561%, 13.299561%)" offset="1"/></radialGradient></defs><g clip-path="url(#cbf080fe78)"><g clip-path="url(#ebb17242b6)"><path fill="url(#be524f7fdf)" d="M 1.878906 0 L 1.878906 374.988281 L 373.121094 374.988281 L 373.121094 0 Z M 1.878906 0 " fill-rule="nonzero"/></g></g><g fill="#ffffff" fill-opacity="1"><g transform="translate(43.644621, 273.374982)"><g><path d="M 107.71875 -174.234375 C 117.125 -175.390625 123.21875 -176.015625 126 -176.109375 C 128.78125 -176.203125 130.554688 -176.25 131.328125 -176.25 C 133.828125 -176.25 135.171875 -176.0625 135.359375 -175.6875 C 135.359375 -175.300781 136.507812 -169.828125 138.8125 -159.265625 C 141.113281 -148.703125 142.648438 -142.363281 143.421875 -140.25 C 143.421875 -139.875 143.082031 -139.585938 142.40625 -139.390625 C 141.738281 -139.203125 140.347656 -139.054688 138.234375 -138.953125 C 136.128906 -138.859375 133.539062 -138.8125 130.46875 -138.8125 L 129.890625 -138.8125 C 129.503906 -138.8125 129.023438 -138.8125 128.453125 -138.8125 L 127.296875 -138.8125 C 127.296875 -138.8125 127.203125 -138.8125 127.015625 -138.8125 L 125.859375 -138.8125 C 125.660156 -138.8125 125.5625 -138.8125 125.5625 -138.8125 L 124.984375 -138.8125 C 124.984375 -138.8125 124.890625 -138.8125 124.703125 -138.8125 L 116.921875 -138.8125 C 81.984375 -138.8125 63.742188 -137.660156 62.203125 -135.359375 C 61.628906 -134.203125 61.25 -126.332031 61.0625 -111.75 L 61.0625 -95.046875 L 75.453125 -95.90625 C 86.203125 -96.476562 96.765625 -97.34375 107.140625 -98.5 C 119.234375 -99.84375 126.046875 -100.515625 127.578125 -100.515625 C 128.734375 -100.515625 129.503906 -100.03125 129.890625 -99.0625 C 130.273438 -98.101562 130.847656 -95.128906 131.609375 -90.140625 C 132.578125 -82.847656 133.828125 -76.609375 135.359375 -71.421875 C 136.316406 -66.816406 136.796875 -63.84375 136.796875 -62.5 C 136.796875 -62.113281 136.695312 -61.773438 136.5 -61.484375 C 136.3125 -61.203125 123.644531 -61.0625 98.5 -61.0625 L 61.0625 -61.0625 L 61.0625 -43.203125 C 61.0625 -32.253906 61.632812 -19.96875 62.78125 -6.34375 C 63.738281 3.644531 64.21875 9.890625 64.21875 12.390625 C 64.21875 13.347656 64.125 13.828125 63.9375 13.828125 C 63.9375 13.828125 63.742188 13.828125 63.359375 13.828125 C 61.628906 13.828125 56.445312 13.054688 47.8125 11.515625 C 39.550781 9.984375 31.484375 8.546875 23.609375 7.203125 C 17.847656 6.429688 14.96875 5.375 14.96875 4.03125 C 14.96875 2.300781 15.546875 -2.5 16.703125 -10.375 C 19.203125 -31.101562 20.453125 -57.789062 20.453125 -90.4375 C 20.453125 -96.957031 20.351562 -103.675781 20.15625 -110.59375 C 19.769531 -139.195312 19.390625 -156.570312 19.015625 -162.71875 L 18.140625 -170.203125 L 54.4375 -170.78125 C 79.582031 -171.164062 97.34375 -172.316406 107.71875 -174.234375 Z M 107.71875 -174.234375 "/></g></g></g><g fill="#ffffff" fill-opacity="1"><g transform="translate(178.712569, 273.374982)"><g><path d="M 20.15625 -172.515625 C 19.96875 -173.472656 19.875 -174.335938 19.875 -175.109375 C 19.875 -176.640625 20.113281 -177.453125 20.59375 -177.546875 C 21.070312 -177.648438 21.40625 -177.703125 21.59375 -177.703125 C 23.320312 -177.703125 27.257812 -176.929688 33.40625 -175.390625 C 38.78125 -174.046875 45.40625 -172.796875 53.28125 -171.640625 L 62.78125 -170.78125 L 62.5 -110.296875 C 62.5 -100.503906 62.5 -91.769531 62.5 -84.09375 C 62.5 -60.664062 62.691406 -45.882812 63.078125 -39.75 L 63.9375 -26.78125 L 83.515625 -27.078125 C 100.992188 -27.265625 118.753906 -28.894531 136.796875 -31.96875 L 141.984375 -32.828125 L 142.5625 -26.203125 C 143.332031 -21.210938 144.960938 -10.847656 147.453125 4.890625 L 148.03125 8.640625 L 113.46875 8.640625 C 87.550781 8.828125 65.375 9.210938 46.9375 9.796875 C 31.769531 10.367188 21.976562 10.65625 17.5625 10.65625 C 16.03125 10.65625 15.210938 10.609375 15.109375 10.515625 C 15.015625 10.421875 14.96875 10.179688 14.96875 9.796875 C 14.96875 8.453125 15.453125 4.707031 16.421875 -1.4375 C 18.335938 -15.070312 19.582031 -27.9375 20.15625 -40.03125 C 20.738281 -52.125 21.03125 -73.53125 21.03125 -104.25 C 21.03125 -146.300781 20.738281 -169.054688 20.15625 -172.515625 Z M 20.15625 -172.515625 "/></g></g></g></svg>